<?xml version="1.0" standalone="no"?>
<!DOCTYPE svg PUBLIC "-//W3C//DTD SVG 20010904//EN"
 "http://www.w3.org/TR/2001/REC-SVG-20010904/DTD/svg10.dtd">
<svg version="1.0" xmlns="http://www.w3.org/2000/svg"
 width="512.000000pt" height="512.000000pt" viewBox="0 0 512.000000 512.000000"
 preserveAspectRatio="xMidYMid meet">
<metadata>
Created by potrace 1.14, written by Peter Selinger 2001-2017
</metadata>
<g transform="translate(0.000000,512.000000) scale(0.100000,-0.100000)"
fill="#000000" stroke="none">
<path d="M3797 4963 c-2 -1 -14 -4 -27 -6 -68 -13 -125 -34 -230 -85 -63 -31
-118 -61 -122 -67 -4 -5 -8 -6 -8 -1 0 6 -5 5 -12 -2 -7 -7 -20 -12 -30 -12
-10 0 -18 -4 -18 -9 0 -7 -64 -39 -90 -46 -6 -1 -78 -37 -105 -52 -65 -37
-265 -131 -265 -125 0 4 -4 3 -8 -3 -9 -13 -93 -55 -109 -55 -7 0 -13 -4 -13
-10 0 -5 -9 -10 -20 -10 -11 0 -20 -4 -20 -10 0 -5 -5 -10 -12 -10 -6 0 -102
-45 -212 -99 -230 -113 -801 -394 -1113 -547 -116 -57 -215 -104 -219 -104 -4
0 -15 -7 -25 -16 -9 -8 -23 -17 -31 -18 -7 -1 -32 -12 -56 -24 -23 -12 -42
-19 -42 -15 0 5 -4 3 -8 -2 -8 -12 -137 -75 -152 -75 -6 0 -10 -4 -10 -8 0 -5
-6 -9 -12 -9 -7 0 -35 -11 -63 -23 -27 -13 -52 -24 -55 -24 -14 -3 -189 -92
-213 -108 -15 -11 -27 -17 -27 -13 0 3 -10 -3 -22 -15 -12 -11 -28 -20 -35
-20 -7 0 -13 -4 -13 -8 0 -5 -12 -15 -27 -23 -16 -8 -35 -22 -44 -31 -9 -10
-20 -18 -23 -18 -4 0 -13 -6 -21 -12 -102 -98 -145 -143 -145 -154 0 -8 -4
-14 -8 -14 -8 0 -28 -41 -50 -100 -14 -35 -24 -115 -23 -180 1 -51 3 -74 16
-140 3 -14 7 -36 10 -49 13 -69 112 -288 145 -321 3 -3 26 -36 52 -75 26 -38
58 -82 70 -97 13 -14 34 -41 48 -59 87 -111 379 -370 590 -522 36 -25 108 -78
160 -117 52 -39 194 -137 315 -217 121 -80 253 -168 292 -194 40 -27 75 -49
78 -49 5 0 81 -45 145 -85 138 -87 388 -222 510 -275 41 -18 93 -41 114 -51
22 -11 44 -19 49 -19 6 0 46 -15 91 -34 45 -18 113 -46 151 -61 39 -15 79 -31
90 -35 11 -5 38 -14 60 -20 22 -6 49 -15 60 -20 11 -5 63 -23 115 -41 52 -17
104 -35 115 -39 23 -10 91 -31 108 -34 7 -1 35 -9 62 -18 106 -33 310 -85 486
-124 24 -5 93 -15 117 -17 6 0 12 -3 12 -7 0 -3 8 -6 18 -6 29 -1 185 -15 227
-20 118 -15 381 -24 415 -13 23 6 70 57 70 74 0 24 -31 65 -49 65 -15 0 -17
21 -18 190 -1 105 -5 195 -8 200 -3 5 -1 11 5 15 6 4 8 11 5 16 -10 15 -12
100 -3 105 5 3 5 11 1 17 -4 6 -8 104 -9 217 -3 230 -13 649 -18 695 -2 17 1
36 7 43 5 7 6 12 0 12 -5 0 -9 42 -10 92 -3 222 -19 663 -29 773 -3 33 -7 83
-9 110 -11 134 -25 292 -31 355 -4 30 -6 72 -5 93 0 21 -3 36 -7 34 -4 -3 -8
23 -8 57 -2 58 -9 147 -20 246 -10 97 -17 177 -18 215 0 22 -5 43 -11 47 -6 5
-5 8 3 8 7 0 10 5 7 10 -4 6 -8 34 -11 63 -2 28 -7 63 -10 77 -7 34 -17 119
-18 153 -1 15 -3 27 -6 27 -3 0 -7 15 -8 33 -2 17 -4 39 -6 47 -1 8 -6 33 -10
55 -17 92 -39 184 -57 242 -12 34 -20 65 -19 68 0 3 -6 18 -14 33 -8 15 -20
42 -28 60 -7 17 -16 32 -20 32 -5 0 -8 11 -8 24 0 13 -4 26 -9 28 -5 2 -11 10
-13 18 -2 8 -5 17 -8 20 -3 3 -21 25 -40 50 -48 62 -102 121 -107 116 -3 -2
-13 4 -24 15 -11 11 -24 17 -29 14 -6 -4 -10 -2 -10 3 0 10 -45 32 -73 36 -9
1 -20 5 -23 9 -4 4 -14 1 -22 -6 -13 -10 -14 -9 -7 2 6 11 4 13 -8 8 -10 -3
-17 -3 -17 2 0 4 -7 8 -15 8 -8 0 -15 -5 -15 -11 0 -6 -5 -5 -12 2 -16 16 -31
15 -22 0 6 -10 4 -10 -7 -2 -20 15 -69 16 -69 1 0 -7 -3 -8 -8 -2 -6 8 -69 15
-75 8z"/>
</g>
</svg>
